<svg width="219" height="219" viewBox="0 0 219 219" fill="none" xmlns="http://www.w3.org/2000/svg">
<rect width="219" height="219" fill="#0A0A0A"/>
<path d="M82.6477 125.25C81.9583 125.25 81.3674 125.008 80.875 124.523C80.3826 124.038 80.1402 123.447 80.1477 122.75C80.1402 122.068 80.3826 121.485 80.875 121C81.3674 120.515 81.9583 120.273 82.6477 120.273C83.3144 120.273 83.8939 120.515 84.3864 121C84.8864 121.485 85.1402 122.068 85.1477 122.75C85.1402 123.212 85.0189 123.633 84.7841 124.011C84.5568 124.39 84.2538 124.693 83.875 124.92C83.5038 125.14 83.0947 125.25 82.6477 125.25ZM87.4602 105.261V101.727H106.028V105.261H98.8352V125H94.6534V105.261H87.4602ZM111.509 107.545L115.031 113.989L118.611 107.545H122.963L117.702 116.273L123.054 125H118.724L115.031 118.716L111.372 125H107.009L112.327 116.273L107.145 107.545H111.509ZM134.861 107.545V110.727H124.827V107.545H134.861ZM127.304 103.364H131.418V119.75C131.418 120.303 131.501 120.727 131.668 121.023C131.842 121.311 132.069 121.508 132.349 121.614C132.63 121.72 132.94 121.773 133.281 121.773C133.539 121.773 133.774 121.754 133.986 121.716C134.205 121.678 134.372 121.644 134.486 121.614L135.179 124.83C134.959 124.905 134.645 124.989 134.236 125.08C133.834 125.17 133.342 125.223 132.759 125.239C131.728 125.269 130.8 125.114 129.974 124.773C129.149 124.424 128.493 123.886 128.009 123.159C127.531 122.432 127.296 121.523 127.304 120.432V103.364Z" fill="#33363F"/>
<path d="M123 42L161 80H131C126.582 80 123 76.4183 123 72V42Z" fill="#33363F"/>
<path d="M157 175.5H61C59.6193 175.5 58.5 174.381 58.5 173V46C58.5 44.6193 59.6193 43.5 61 43.5H121.618C122.284 43.5 122.923 43.766 123.392 44.2389L158.774 79.887C159.239 80.3552 159.5 80.9883 159.5 81.6481V173C159.5 174.381 158.381 175.5 157 175.5Z" stroke="#33363F" stroke-width="3"/>
</svg>
