<svg width="219" height="219" viewBox="0 0 219 219" fill="none" xmlns="http://www.w3.org/2000/svg">
<rect width="219" height="219" fill="#0A0A0A"/>
<path d="M79.7931 42.79H40.6314C33.507 42.79 27.7314 48.5656 27.7314 55.69V156.31C27.7314 163.435 33.507 169.21 40.6315 169.21H177.371C184.496 169.21 190.271 163.435 190.271 156.31V76.33C190.271 69.2056 184.496 63.43 177.371 63.43H111.12C107.699 63.43 104.417 62.0709 101.998 59.6517L88.9148 46.5684C86.4955 44.1491 83.2144 42.79 79.7931 42.79Z" fill="#0A0A0A" stroke="#33363F" stroke-width="3.87"/>
<path d="M131.215 138.504C128.647 151.345 113.163 156.428 108.958 156.987C108.778 157.011 108.611 157.01 108.432 156.987C104.309 156.452 89.5469 151.972 85.8992 136.57M140.884 121.511C141.989 119.853 141.05 120.074 148.897 119.3L165.2 116.675C165.792 116.591 166.694 116.918 165.982 118.769C165.845 119.124 165.608 119.426 165.32 119.674C158.896 125.209 146.419 135.21 142.629 135.497C142.292 135.522 141.955 135.486 141.619 135.528C140.165 135.712 139.741 135.749 137.845 135.05M76.6396 122.063C75.5046 120.362 76.814 120.176 68.7557 119.381L52.0149 116.687C51.4054 116.6 50.4754 116.938 51.2167 118.85C51.3544 119.205 51.5914 119.507 51.88 119.755C58.4804 125.44 71.3284 135.735 75.2061 136.005C75.5434 136.029 75.88 135.992 76.215 136.038C77.6437 136.235 77.7307 136.32 79.6791 135.603M108.695 84.3677C111.164 83.7277 118.091 83.8209 127.279 88.7941C127.413 88.8668 127.538 88.9484 127.657 89.0444C132.678 93.0978 142.085 104.986 140.883 121.372C140.748 125.042 139.221 134.727 134.227 144.51C134.063 144.832 133.833 145.117 133.557 145.349L127.687 150.28C127.282 150.62 126.969 151.147 127.138 150.646C127.377 149.939 127.919 148.304 129.002 144.997M111.045 90.9775C118.459 91.6222 132.956 98.6039 131.63 121.372M131.628 121.511C131.905 125.517 131.573 135.327 128.036 142.511M127.76 142.925C129.123 141.175 129.971 140.715 131.49 137.675M109.66 99.6814C110.259 104.333 115.38 115.183 131.074 121.372M109.353 84.3679C106.819 83.7256 99.8658 83.7028 90.4325 88.696C90.2987 88.7668 90.1738 88.8464 90.055 88.9401C84.9023 93.0037 75.24 104.934 76.4739 121.381C76.6134 125.063 78.1802 134.781 83.3073 144.598C83.4752 144.92 83.7089 145.204 83.9893 145.434L90.0251 150.39C90.4365 150.728 90.756 151.254 90.5821 150.751C90.3364 150.04 89.7804 148.399 88.6699 145.085M107.313 90.9776C99.6813 91.6224 84.7593 98.604 86.1244 121.373M86.1104 121.649C85.8397 125.655 86.1645 135.465 89.6285 142.649M89.9069 142.925C88.5944 141.175 87.7782 140.715 86.3148 137.675M108.695 99.8198C108.077 104.442 102.791 115.222 86.59 121.373" stroke="#33363F" stroke-width="2.58"/>
<path d="M92.2239 128.557C92.2239 130.338 95.6399 131.8 97.3839 131.8C99.128 131.8 102.544 130.338 102.544 128.557C102.544 126.776 99.128 125.35 97.3839 125.35C95.6399 125.35 92.2239 126.776 92.2239 128.557Z" fill="#33363F"/>
<path d="M145.111 146.634C145.111 150.909 144.534 151.149 143.821 151.149C143.109 151.149 142.531 150.909 142.531 146.634C142.531 142.36 143.109 136.959 143.821 136.959C144.534 136.959 145.111 142.36 145.111 146.634Z" fill="#33363F"/>
<path d="M74.165 146.634C74.165 150.909 73.5874 151.149 72.875 151.149C72.1625 151.149 71.585 150.909 71.585 146.634C71.585 142.36 72.1625 136.959 72.875 136.959C73.5874 136.959 74.165 142.36 74.165 146.634Z" fill="#33363F"/>
<path d="M115.444 128.557C115.444 130.338 118.86 131.8 120.604 131.8C122.348 131.8 125.764 130.338 125.764 128.557C125.764 126.775 122.348 125.35 120.604 125.35C118.86 125.35 115.444 126.775 115.444 128.557Z" fill="#33363F"/>
</svg>
