<svg width="55" height="49" viewBox="0 0 55 49" fill="none" xmlns="http://www.w3.org/2000/svg">
<path d="M34.3203 18.6001L48.2399 7.72009L52.6354 9.84697C52.9806 10.014 53.1998 10.3637 53.1998 10.7471V37.3201L34.3203 45.8001V18.6001Z" fill="#C7BCE4"/>
<path d="M37.5192 5.4801L48.2399 7.72009L32.5 19V45.8001L23.5996 43.2201V16.3601L37.5192 5.4801Z" fill="#C7BCE4"/>
<path d="M26.5 3.24023L37.5192 5.4801L22 16.1003V43L12.5 40V13.5L26.5 3.24023Z" fill="#C7BCE4"/>
<path d="M13.0507 3.06104C14.8782 1.74816 17.1741 1.26562 19.3755 1.73173L26.5 3.24023L11 13.5V39.5L3 37.5L2 11L13.0507 3.06104Z" fill="#C7BCE4"/>
<path d="M48.2399 7.72009L34.3203 18.6001V45.8001L53.1998 37.3201V10.7471C53.1998 10.3637 52.9806 10.014 52.6354 9.84697L48.2399 7.72009ZM48.2399 7.72009L37.5192 5.4801M48.2399 7.72009L32.5 19V45.8001L23.5996 43.2201V16.3601L37.5192 5.4801M37.5192 5.4801L26.5 3.24023M37.5192 5.4801L22 16.1003V43L12.5 40V13.5L26.5 3.24023M26.5 3.24023L19.3755 1.73173C17.1741 1.26562 14.8782 1.74816 13.0507 3.06104L2 11L3 37.5L11 39.5V13.5L26.5 3.24023Z" stroke="black" stroke-width="3"/>
<path d="M3.5 17.5L35.5 25.5V30.5L3.5 22.5V17.5Z" fill="black"/>
</svg>
