<svg width="219" height="219" viewBox="0 0 219 219" fill="none" xmlns="http://www.w3.org/2000/svg">
<rect width="219" height="219" fill="#0A0A0A"/>
<path d="M80.2955 125V101.727H89.0227C90.8106 101.727 92.3106 102.061 93.5227 102.727C94.7424 103.394 95.6629 104.311 96.2841 105.477C96.9129 106.636 97.2273 107.955 97.2273 109.432C97.2273 110.924 96.9129 112.25 96.2841 113.409C95.6553 114.568 94.7273 115.481 93.5 116.148C92.2727 116.807 90.7614 117.136 88.9659 117.136H83.1818V113.67H88.3977C89.4432 113.67 90.2992 113.489 90.9659 113.125C91.6326 112.761 92.125 112.261 92.4432 111.625C92.7689 110.989 92.9318 110.258 92.9318 109.432C92.9318 108.606 92.7689 107.879 92.4432 107.25C92.125 106.621 91.6288 106.133 90.9545 105.784C90.2879 105.428 89.428 105.25 88.375 105.25H84.5114V125H80.2955ZM108.776 125H100.889V101.727H108.935C111.245 101.727 113.23 102.193 114.889 103.125C116.556 104.049 117.836 105.379 118.73 107.114C119.624 108.848 120.071 110.924 120.071 113.341C120.071 115.765 119.62 117.848 118.719 119.591C117.825 121.333 116.533 122.67 114.844 123.602C113.162 124.534 111.139 125 108.776 125ZM105.105 121.352H108.571C110.192 121.352 111.545 121.057 112.628 120.466C113.711 119.867 114.526 118.977 115.071 117.795C115.616 116.606 115.889 115.121 115.889 113.341C115.889 111.561 115.616 110.083 115.071 108.909C114.526 107.727 113.719 106.845 112.651 106.261C111.59 105.67 110.272 105.375 108.696 105.375H105.105V121.352ZM124.077 125V101.727H138.986V105.261H128.293V111.58H137.963V115.114H128.293V125H124.077Z" fill="#33363F"/>
<path d="M123 42L161 80H131C126.582 80 123 76.4183 123 72V42Z" fill="#33363F"/>
<path d="M157 175.5H61C59.6193 175.5 58.5 174.381 58.5 173V46C58.5 44.6193 59.6193 43.5 61 43.5H121.618C122.284 43.5 122.923 43.766 123.392 44.2389L158.774 79.887C159.239 80.3552 159.5 80.9883 159.5 81.6481V173C159.5 174.381 158.381 175.5 157 175.5Z" stroke="#33363F" stroke-width="3"/>
</svg>
