<svg width="20" height="20" viewBox="0 0 20 20" fill="none" xmlns="http://www.w3.org/2000/svg">
<path fill-rule="evenodd" clip-rule="evenodd" d="M4.52373 3.54534C5.4608 1.45744 7.55912 0 10 0C12.4409 0 14.5392 1.45744 15.4763 3.54534C15.5599 3.73166 15.6158 3.85598 15.6579 3.94471C15.6683 3.96657 15.6767 3.98381 15.6835 3.99728L15.7032 3.99799C15.7668 3.99989 15.854 4 16 4C18.2091 4 20 5.79086 20 8C20 10.2091 18.2091 12 16 12H15.8284L13.8284 10H16C17.1046 10 18 9.10457 18 8C18 6.89543 17.1046 6 16 6L15.9358 6.0001C15.7282 6.00057 15.4866 6.00111 15.2857 5.96068C15.0732 5.91791 14.8275 5.84692 14.586 5.69062C14.3445 5.53433 14.1792 5.33923 14.0531 5.16285C13.9663 5.04134 13.8978 4.90047 13.8517 4.8035C13.7989 4.69243 13.7339 4.54772 13.6565 4.37511L13.6516 4.36427C13.0253 2.96871 11.6247 2 10 2C8.37531 2 6.97472 2.96871 6.34838 4.36427L6.34352 4.37511L6.34349 4.37517C6.26604 4.54775 6.2011 4.69244 6.14829 4.8035C6.10219 4.90047 6.03371 5.04134 5.94687 5.16285C5.82083 5.33923 5.65546 5.53433 5.414 5.69062C5.17254 5.84692 4.92683 5.91791 4.71431 5.96068C4.51342 6.00111 4.27177 6.00057 4.0642 6.0001H4.06419L4 6C2.89543 6 2 6.89543 2 8C2 9.10457 2.89543 10 4 10H6.17157L4.17157 12H4C1.79086 12 0 10.2091 0 8C0 5.79086 1.79086 4 4 4C4.14598 4 4.23318 3.99989 4.29677 3.99799L4.31654 3.99729C4.32326 3.98381 4.33167 3.96657 4.34206 3.94471C4.38425 3.85598 4.44011 3.73166 4.52373 3.54534ZM4.29774 4.03336C4.29761 4.03357 4.29755 4.03369 4.29756 4.03369L4.29777 4.03333L4.29774 4.03336ZM5.29289 13.2929L9.29289 9.29289L10 8.58579L10.7071 9.29289L14.7071 13.2929L13.2929 14.7071L11 12.4142V19C11 19.5523 10.5523 20 10 20C9.44772 20 9 19.5523 9 19V12.4142L6.70711 14.7071L5.29289 13.2929ZM15.7024 4.03369L15.7023 4.03336L15.7022 4.03333C15.7024 4.03358 15.7024 4.03369 15.7024 4.03369Z" fill="black"/>
</svg>
