<svg width="219" height="219" viewBox="0 0 219 219" fill="none" xmlns="http://www.w3.org/2000/svg">
<rect width="219" height="219" fill="#0A0A0A"/>
<rect x="42" y="54" width="134" height="112" fill="#33363F"/>
<rect x="46" y="73" width="126" height="74" fill="#0A0A0A"/>
<rect x="47" y="57" width="19" height="12" fill="#0A0A0A"/>
<rect x="152" y="57" width="19" height="12" fill="#0A0A0A"/>
<rect x="131" y="57" width="19" height="12" fill="#0A0A0A"/>
<rect x="110" y="57" width="19" height="12" fill="#0A0A0A"/>
<rect x="89" y="57" width="19" height="12" fill="#0A0A0A"/>
<rect x="68" y="57" width="19" height="12" fill="#0A0A0A"/>
<rect x="47" y="151" width="19" height="12" fill="#0A0A0A"/>
<rect x="152" y="151" width="19" height="12" fill="#0A0A0A"/>
<rect x="131" y="151" width="19" height="12" fill="#0A0A0A"/>
<rect x="110" y="151" width="19" height="12" fill="#0A0A0A"/>
<rect x="89" y="151" width="19" height="12" fill="#0A0A0A"/>
<rect x="68" y="151" width="19" height="12" fill="#0A0A0A"/>
<path d="M126.382 107.309C127.962 108.296 127.977 110.592 126.41 111.599L98.1338 129.777C96.4434 130.863 94.2203 129.65 94.2203 127.64L94.2203 91.7903C94.2203 89.7953 96.4147 88.579 98.1064 89.6364L126.382 107.309Z" fill="#33363F"/>
</svg>
